HIERARCHY
ROOT HipCenter
{
    OFFSET 0.0 0.0 -0.0
    CHANNELS 6 Xposition Yposition Zposition Zrotation Xrotation Yrotation
    JOINT Spine
    {
        OFFSET 0.0 10.584936141967773 0.0
        CHANNELS 3 Zrotation Xrotation Yrotation
        JOINT ShoulderCenter
        {
            OFFSET 0.0 28.986366271972656 0.0
            CHANNELS 3 Zrotation Xrotation Yrotation
            JOINT LeftShoulder
            {
                OFFSET 17.241127014160156 0.0 0.0
                CHANNELS 3 Zrotation Xrotation Yrotation
                JOINT LeftElbow
                {
                    OFFSET 26.649410247802734 0.0 0.0
                    CHANNELS 3 Zrotation Xrotation Yrotation
                    JOINT LeftWrist
                    {
                        OFFSET 25.035261154174805 0.0 0.0
                        CHANNELS 3 Zrotation Xrotation Yrotation
                        JOINT LeftHand
                        {
                            OFFSET 4.346026420593262 0.0 0.0
                            CHANNELS 3 Zrotation Xrotation Yrotation
                            End Site
                            {
                                OFFSET 1.738410472869873 0.0 0.0
                            }
                        }
                    }
                }
            }
            JOINT RightShoulder
            {
                OFFSET -17.241127014160156 0.0 0.0
                CHANNELS 3 Zrotation Xrotation Yrotation
                JOINT RightElbow
                {
                    OFFSET -26.649410247802734 0.0 0.0
                    CHANNELS 3 Zrotation Xrotation Yrotation
                    JOINT RightWrist
                    {
                        OFFSET -25.035261154174805 0.0 0.0
                        CHANNELS 3 Zrotation Xrotation Yrotation
                        JOINT RightHand
                        {
                            OFFSET -4.346026420593262 0.0 0.0
                            CHANNELS 3 Zrotation Xrotation Yrotation
                            End Site
                            {
                                OFFSET -1.738410472869873 0.0 0.0
                            }
                        }
                    }
                }
            }
            End Site
            {
                OFFSET 0.0 11.594547271728516 0.0
            }
        }
    }
    JOINT LeftHip
    {
        OFFSET 12.265192031860352 0.0 0.0
        CHANNELS 3 Zrotation Xrotation Yrotation
        JOINT LeftKnee
        {
            OFFSET 0.0 -40.246559143066406 0.0
            CHANNELS 3 Zrotation Xrotation Yrotation
            JOINT LeftAnkle
            {
                OFFSET 0.0 -38.28546905517578 0.0
                CHANNELS 3 Zrotation Xrotation Yrotation
                JOINT LeftFoot
                {
                    OFFSET 0.0 -10.729779243469238 0.0
                    CHANNELS 3 Zrotation Xrotation Yrotation
                    End Site
                    {
                        OFFSET 0.0 0.0 4.291912078857422
                    }
                }
            }
        }
    }
    JOINT RightHip
    {
        OFFSET -12.265192031860352 0.0 0.0
        CHANNELS 3 Zrotation Xrotation Yrotation
        JOINT RightKnee
        {
            OFFSET 0.0 -40.246559143066406 0.0
            CHANNELS 3 Zrotation Xrotation Yrotation
            JOINT RightAnkle
            {
                OFFSET 0.0 -38.28546905517578 0.0
                CHANNELS 3 Zrotation Xrotation Yrotation
                JOINT RightFoot
                {
                    OFFSET 0.0 -10.729779243469238 0.0
                    CHANNELS 3 Zrotation Xrotation Yrotation
                    End Site
                    {
                        OFFSET 0.0 0.0 4.291912078857422
                    }
                }
            }
        }
    }
}
MOTION
Frames: 5
Frame Time: 0.03333333333333333
-167.60000610351562 -9.800000190734863 16.399999618530273 -3.2705210742038626 -5.431524506142653 84.37252066974979 6.767412668763321 -11.154032591778355 0.5828806965814001 -5.160096562196748e-07 3.482704514287878e-08 2.1511944531720046 89.1310915037661 52.77545272987792 174.03776917971533 2.5702648320197317e-06 -1.593448226171854e-06 12.806009329520613 -1.6446954470910385e-06 -67.71925596273725 22.877754332316417 0.0 0.0 0.0 -86.50016132030156 38.11240889328071 -178.1581203340594 4.062113132758381e-06 -2.293363205069983e-06 -14.121482560170234 -9.324240078249175e-07 31.402392862086298 -18.584039614803256 0.0 0.0 0.0 12.075355892826257 -14.227084835674619 2.998480466314222 3.770969219525857 43.2927452877604 -53.16757216041598 88.9686600651988 -28.82774196616974 149.51427239769396 -2.3854160110976384e-15 -3.1805546814635176e-15 -4.770832022195277e-15 12.019122879911869 -15.182284834961239 0.21586273633178363 2.558508257706829 32.161545697601056 28.376797452791433 -81.77377031642436 -34.94063821126441 -133.89510424517033 6.361109362927033e-15 -1.7655625192200634e-31 -3.1805546814635164e-15
-167.5 -9.800000190734863 16.399999618530273 -3.2704380637694 -5.431525287226809 84.78347044475524 6.686754933830147 -11.202057641869978 0.4970754625245265 -2.3983328954122617e-07 -2.947588293892249e-07 2.0142771131720623 89.1592793265335 51.1867116777814 173.8702188009909 -6.591816817601941e-07 7.975039630690941e-07 12.77877269462849 4.881230446342204e-06 -71.05815474744068 24.328801785877044 6.3611093629270335e-15 -3.1805546814635168e-15 -4.770832022195275e-15 -86.58069487218609 37.30567438204333 -177.96428339475085 -1.7563262748529353e-06 -1.1069467961880518e-05 -14.061005842792786 1.3058380183004152e-06 29.680345613911747 -19.43365665970257 3.1805546814635168e-15 6.361109362927035e-15 6.361109362927035e-15 12.104770727488699 -14.157137679518621 2.2983353880752646 3.532466780713398 43.155876663951545 -53.409436519024915 88.51235229497661 -28.935069417997617 149.22144822196108 1.5902773407317584e-15 -4.4139062980501586e-32 -3.1805546814635168e-15 12.043353834478157 -15.0052736373054 0.7474564019297485 2.962790844216965 31.806932811077594 27.695876018359254 -82.3016618394738 -34.604893519941015 -134.48179957487523 -6.3611093629270335e-15 7.951386703658792e-16 4.4139062980501586e-32
-167.3000030517578 -9.800000190734863 16.5 -3.270438304073303 -5.431524990980731 84.37252597330148 6.607334491112762 -11.560439214988424 0.5716755459700381 -3.92828187691233e-08 -1.8196788832450374e-07 2.5161950970962996 89.73117778005914 51.85033136217816 173.45758835075347 2.4051675940000883e-06 2.591634879057886e-06 12.588610993883044 -1.0092650881516774e-05 -70.08872091767913 24.318671931473844 -1.1034765745125397e-32 -3.1805546814635168e-15 -3.975693351829396e-16 -86.68957981985015 36.674524544689866 -177.47477820214647 -4.368791500118202e-06 -4.2004901520713165e-06 -14.300454205228757 6.942641471988649e-06 27.98230169851877 -17.453703468093874 3.1805546814635168e-15 8.827812596100317e-32 3.1805546814635168e-15 12.159158087983332 -13.765327376192431 2.1795118517171272 3.263516951983079 42.874066685705884 -52.90792119425111 89.0065460222101 -28.71679855686129 149.91800195558153 0.0 0.0 0.0 12.119271126477294 -14.75158737338612 0.7972630122485274 2.9368650948106505 31.660303091335173 27.33367418487437 -82.32246904270514 -35.291628381580225 -133.80777513257436 0.0 0.0 -3.180554681463516e-15
-167.20001220703125 -9.800000190734863 16.599998474121094 -3.2705211090220883 -5.431514115053925 84.76439583446633 6.2910372158646455 -11.236365721364043 0.49800255410641886 -6.72410470196286e-07 -7.492011149363773e-07 2.190830882859519 89.83284893345635 52.61308400156202 173.94316504011496 1.8144753817553055e-06 -1.7095366456964419e-06 12.45535661785056 8.622626276429701e-06 -69.12758810807355 24.010536613270585 0.0 0.0 -1.5902773407317584e-15 -86.18393510639811 36.53515605928791 -177.9548068057103 -4.422484662450416e-06 -3.3334816511997405e-06 -13.61011699519108 2.5671574079787397e-06 23.049370192568727 -19.04041268811068 0.0 -6.361109362927032e-15 0.0 12.050951704981063 -13.708608329618157 1.6233487655970067 3.1194425001135095 42.74372506559797 -52.22599449674608 89.53157039378092 -29.046273450483813 150.00818313660142 0.0 3.1805546814635168e-15 0.0 11.9879518362184 -14.66643033897418 1.2019314393105496 3.4894789343383064 31.82913960316232 27.408992467150604 -81.96841425049593 -34.5268985728356 -133.80444297099072 0.0 5.565970692561154e-15 0.0
-167.10000610351562 -9.800000190734863 16.599998474121094 -3.2705207009039063 -4.891139033692471 85.21185558905123 5.4649463653825014 -11.346405681193113 0.37090510918336334 6.472051316319898e-07 3.4214301694267594e-07 2.023890067400184 90.44623946649072 51.70088126181227 173.3254258075381 -3.1765846680117116e-06 2.2981788134755688e-06 12.598251549446942 1.3557350607073274e-05 -66.32823991277567 23.17178980275059 6.3611093629270335e-15 2.2069531490250793e-32 3.975693351829396e-16 -86.2530824728018 35.66052320664082 -177.46768472841836 -7.879996395664722e-07 1.606698556067637e-06 -13.944130514159049 2.174291658630216e-06 21.958684496313385 -19.04041227219841 0.0 -6.361109362927032e-15 0.0 11.407567140254791 -13.84579533456002 2.047524252174639 3.741833640227671 42.90386702127499 -53.0165847711345 88.64184369770766 -29.03011590497011 149.35586620151943 7.951386703658791e-16 1.1034765745125397e-32 1.5902773407317582e-15 11.498312369534016 -14.816802298839125 0.7034918516595744 3.234413567462319 31.94156687192924 27.477185852989027 -82.35473807002367 -34.36167022968082 -134.31548171791374 0.0 -7.95138670365879e-16 0.0
